<svg width="30" height="22" viewBox="0 0 30 22" fill="none" xmlns="http://www.w3.org/2000/svg">
<mask id="path-1-inside-1_685_6134" fill="white">
<path d="M14.6701 0.354029L0.831265 10.2549C0.707838 10.3433 0.607237 10.4598 0.537787 10.5949C0.468337 10.7299 0.432035 10.8794 0.431885 11.0313V11.0335C0.432203 11.1859 0.468882 11.336 0.538873 11.4714C0.608864 11.6067 0.710147 11.7234 0.834305 11.8118L14.6731 21.6488C14.8162 21.7505 14.9846 21.8108 15.1597 21.8231C15.3348 21.8354 15.5098 21.7991 15.6657 21.7184C15.8218 21.6381 15.9526 21.5163 16.0439 21.3663C16.1351 21.2164 16.1832 21.0442 16.1829 20.8687V16.2392L28.6123 16.2395C28.7379 16.2396 28.8622 16.2149 28.9782 16.1669C29.0942 16.1188 29.1996 16.0484 29.2883 15.9596C29.3771 15.8708 29.4475 15.7654 29.4955 15.6494C29.5435 15.5334 29.5681 15.409 29.568 15.2835L29.5676 6.71789C29.5677 6.59229 29.543 6.46791 29.4949 6.35186C29.4469 6.23582 29.3764 6.13038 29.2876 6.04159C29.1987 5.9528 29.0933 5.88238 28.9772 5.83437C28.8612 5.78637 28.7368 5.76171 28.6112 5.76181H16.1833V1.13075C16.1833 0.773546 15.9819 0.445606 15.6638 0.280687C15.5075 0.200253 15.332 0.164539 15.1566 0.177481C14.9813 0.19042 14.8129 0.251514 14.6701 0.354029Z"/>
</mask>
<path d="M14.6701 0.354029L15.8338 1.98061L15.8363 1.97885L14.6701 0.354029ZM0.831265 10.2549L-0.332458 8.62835L-0.333281 8.62894L0.831265 10.2549ZM0.431885 11.0313L-1.56812 11.0293V11.0313H0.431885ZM0.431885 11.0335H-1.56812L-1.56811 11.0377L0.431885 11.0335ZM0.834305 11.8118L-0.325215 13.4414L-0.324438 13.4419L0.834305 11.8118ZM14.6731 21.6488L13.5144 23.279L13.5144 23.279L14.6731 21.6488ZM15.6657 21.7184L14.7506 19.94L14.7456 19.9426L15.6657 21.7184ZM16.1829 20.8687H14.1829L14.1829 20.8727L16.1829 20.8687ZM16.1829 16.2392L16.1829 14.2392L14.1829 14.2391V16.2392H16.1829ZM28.6123 16.2395L28.6131 14.2395H28.6124L28.6123 16.2395ZM29.568 15.2835L27.568 15.2836V15.2851L29.568 15.2835ZM29.5676 6.71789L27.5676 6.71709V6.71798L29.5676 6.71789ZM28.9772 5.83437L29.7417 3.98623L28.9772 5.83437ZM28.6112 5.76181V7.76181L28.6128 7.76181L28.6112 5.76181ZM16.1833 5.76181H14.1833L14.1833 7.76181L16.1833 7.76181V5.76181ZM15.6638 0.280687L16.5844 -1.49483L16.5788 -1.49773L15.6638 0.280687ZM13.5064 -1.27255L-0.332458 8.62835L1.99499 11.8815L15.8338 1.9806L13.5064 -1.27255ZM-0.333281 8.62894C-0.714901 8.90226 -1.02595 9.26253 -1.24068 9.67994L2.31625 11.5098C2.24042 11.6572 2.13058 11.7844 1.99581 11.8809L-0.333281 8.62894ZM-1.24068 9.67994C-1.45541 10.0973 -1.56765 10.5599 -1.56811 11.0293L2.43188 11.0332C2.43172 11.199 2.39208 11.3624 2.31625 11.5098L-1.24068 9.67994ZM-1.56812 11.0313V11.0335H2.43188V11.0313H-1.56812ZM-1.56811 11.0377C-1.56713 11.5084 -1.45384 11.972 -1.23767 12.39L2.31542 10.5528C2.39161 10.7001 2.43153 10.8635 2.43188 11.0294L-1.56811 11.0377ZM-1.23767 12.39C-1.0215 12.8081 -0.708683 13.1685 -0.325215 13.4414L1.99382 10.1822C2.12898 10.2784 2.23923 10.4054 2.31542 10.5528L-1.23767 12.39ZM-0.324438 13.4419L13.5144 23.279L15.8319 20.0187L1.99305 10.1817L-0.324438 13.4419ZM13.5144 23.279C13.9572 23.5937 14.478 23.7803 15.0199 23.8182L15.2994 19.828C15.4911 19.8414 15.6753 19.9074 15.8319 20.0187L13.5144 23.279ZM15.0199 23.8182C15.5617 23.8562 16.1035 23.7441 16.5858 23.4942L14.7456 19.9426C14.9162 19.8542 15.1078 19.8146 15.2994 19.828L15.0199 23.8182ZM16.5808 23.4968C17.0642 23.248 17.4696 22.8706 17.7523 22.4062L14.3355 20.3265C14.4356 20.1619 14.5793 20.0282 14.7506 19.94L16.5808 23.4968ZM17.7523 22.4062C18.035 21.9418 18.184 21.4084 18.1829 20.8647L14.1829 20.8727C14.1825 20.6801 14.2353 20.491 14.3355 20.3265L17.7523 22.4062ZM18.1829 20.8687V16.2392H14.1829V20.8687H18.1829ZM16.1828 18.2392L28.6122 18.2395L28.6124 14.2395L16.1829 14.2392L16.1828 18.2392ZM28.6115 18.2395C28.9999 18.2397 29.3845 18.1633 29.7434 18.0147L28.213 14.319C28.3399 14.2665 28.4758 14.2395 28.6131 14.2395L28.6115 18.2395ZM29.7434 18.0147C30.1022 17.8661 30.4282 17.6482 30.7028 17.3735L27.8738 14.5457C27.9709 14.4486 28.0861 14.3716 28.213 14.319L29.7434 18.0147ZM30.7028 17.3735C30.9774 17.0989 31.1952 16.7727 31.3436 16.4138L27.6473 14.8849C27.6998 14.7581 27.7768 14.6428 27.8738 14.5457L30.7028 17.3735ZM31.3436 16.4138C31.4921 16.0549 31.5683 15.6703 31.568 15.2819L27.568 15.2851C27.5679 15.1478 27.5948 15.0118 27.6473 14.8849L31.3436 16.4138ZM31.568 15.2834L31.5676 6.7178L27.5676 6.71798L27.568 15.2836L31.568 15.2834ZM31.5676 6.71868C31.5678 6.33024 31.4914 5.94557 31.3427 5.58668L27.6471 7.11705C27.5946 6.99024 27.5676 6.85434 27.5676 6.71709L31.5676 6.71868ZM31.3427 5.58668C31.1941 5.22781 30.9762 4.90173 30.7015 4.6271L27.8736 7.45608C27.7766 7.35904 27.6996 7.24383 27.6471 7.11705L31.3427 5.58668ZM30.7015 4.6271C30.4268 4.35247 30.1006 4.1347 29.7417 3.98623L28.2128 7.68251C28.086 7.63006 27.9707 7.55312 27.8736 7.45608L30.7015 4.6271ZM29.7417 3.98623C29.3827 3.83776 28.998 3.7615 28.6096 3.76181L28.6128 7.76181C28.4755 7.76192 28.3396 7.73497 28.2128 7.68251L29.7417 3.98623ZM28.6112 3.76181H16.1833V7.76181H28.6112V3.76181ZM18.1833 5.76181V1.13075H14.1833V5.76181H18.1833ZM18.1833 1.13075C18.1833 0.0174751 17.5575 -0.990278 16.5844 -1.49482L14.7432 2.0562C14.4062 1.88149 14.1833 1.52962 14.1833 1.13075H18.1833ZM16.5788 -1.49773C16.095 -1.74663 15.552 -1.85714 15.0094 -1.81709L15.3038 2.17205C15.112 2.18622 14.9199 2.14714 14.7488 2.0591L16.5788 -1.49773ZM15.0094 -1.81709C14.4669 -1.77705 13.9459 -1.588 13.5039 -1.27079L15.8363 1.97885C15.68 2.09103 15.4957 2.15789 15.3038 2.17205L15.0094 -1.81709Z" fill="#E36746" mask="url(#path-1-inside-1_685_6134)"/>
</svg>
