<svg width="30" height="22" viewBox="0 0 30 22" fill="none" xmlns="http://www.w3.org/2000/svg">
<mask id="path-1-inside-1_685_2511" fill="white">
<path d="M15.3299 0.354027L29.1687 10.2549C29.2922 10.3433 29.3928 10.4598 29.4622 10.5948C29.5317 10.7299 29.568 10.8794 29.5681 11.0313V11.0335C29.5678 11.1859 29.5311 11.336 29.4611 11.4714C29.3911 11.6067 29.2899 11.7234 29.1657 11.8118L15.3269 21.6488C15.1838 21.7505 15.0154 21.8108 14.8403 21.8231C14.6652 21.8354 14.4902 21.7991 14.3343 21.7184C14.1782 21.6381 14.0474 21.5163 13.9561 21.3663C13.8649 21.2164 13.8168 21.0442 13.8171 20.8687V16.2392L1.3877 16.2395C1.26215 16.2396 1.13782 16.2149 1.02182 16.1669C0.905821 16.1188 0.800428 16.0484 0.711668 15.9596C0.622908 15.8708 0.552523 15.7654 0.504534 15.6494C0.456547 15.5334 0.431898 15.409 0.431997 15.2835L0.432377 6.71789C0.432327 6.59229 0.457035 6.46791 0.505089 6.35186C0.553143 6.23582 0.623598 6.13038 0.712427 6.04159C0.801258 5.95279 0.906721 5.88238 1.02278 5.83437C1.13885 5.78637 1.26324 5.76171 1.38884 5.76181H13.8167V1.13074C13.8167 0.773546 14.0181 0.445606 14.3362 0.280685C14.4925 0.200253 14.668 0.164537 14.8434 0.177479C15.0187 0.190418 15.1871 0.251513 15.3299 0.354027Z"/>
</mask>
<path d="M15.3299 0.354027L14.1662 1.9806L14.1637 1.97884L15.3299 0.354027ZM29.1687 10.2549L30.3325 8.62835L30.3333 8.62894L29.1687 10.2549ZM29.5681 11.0313L31.5681 11.0293V11.0313H29.5681ZM29.5681 11.0335H31.5681L31.5681 11.0377L29.5681 11.0335ZM29.1657 11.8118L30.3252 13.4414L30.3244 13.4419L29.1657 11.8118ZM15.3269 21.6488L16.4856 23.279L16.4856 23.279L15.3269 21.6488ZM14.3343 21.7184L15.2494 19.94L15.2544 19.9426L14.3343 21.7184ZM13.8171 20.8687H15.8171L15.8171 20.8727L13.8171 20.8687ZM13.8171 16.2392L13.8171 14.2392L15.8171 14.2391V16.2392H13.8171ZM1.3877 16.2395L1.3869 14.2395H1.38764L1.3877 16.2395ZM0.431997 15.2835L2.432 15.2836V15.2851L0.431997 15.2835ZM0.432377 6.71789L2.43238 6.71709V6.71797L0.432377 6.71789ZM1.38884 5.76181V7.76181L1.38725 7.76181L1.38884 5.76181ZM13.8167 5.76181H15.8167L15.8167 7.76181L13.8167 7.76181L13.8167 5.76181ZM14.3362 0.280685L13.4156 -1.49483L13.4212 -1.49773L14.3362 0.280685ZM16.4936 -1.27255L30.3325 8.62835L28.005 11.8815L14.1662 1.9806L16.4936 -1.27255ZM30.3333 8.62894C30.7149 8.90226 31.0259 9.26253 31.2407 9.67994L27.6837 11.5098C27.7596 11.6572 27.8694 11.7844 28.0042 11.8809L30.3333 8.62894ZM31.2407 9.67994C31.4554 10.0973 31.5676 10.5599 31.5681 11.0293L27.5681 11.0332C27.5683 11.199 27.6079 11.3624 27.6837 11.5098L31.2407 9.67994ZM31.5681 11.0313V11.0335H27.5681V11.0313H31.5681ZM31.5681 11.0377C31.5671 11.5084 31.4538 11.972 31.2377 12.39L27.6846 10.5528C27.6084 10.7001 27.5685 10.8635 27.5681 11.0294L31.5681 11.0377ZM31.2377 12.39C31.0215 12.8081 30.7087 13.1685 30.3252 13.4414L28.0062 10.1822C27.871 10.2784 27.7608 10.4054 27.6846 10.5528L31.2377 12.39ZM30.3244 13.4419L16.4856 23.279L14.1681 20.0187L28.007 10.1817L30.3244 13.4419ZM16.4856 23.279C16.0428 23.5937 15.522 23.7803 14.9801 23.8182L14.7006 19.828C14.5089 19.8414 14.3247 19.9074 14.1681 20.0187L16.4856 23.279ZM14.9801 23.8182C14.4383 23.8562 13.8965 23.7441 13.4142 23.4942L15.2544 19.9426C15.0838 19.8542 14.8922 19.8146 14.7006 19.828L14.9801 23.8182ZM13.4192 23.4968C12.9358 23.248 12.5304 22.8706 12.2477 22.4062L15.6645 20.3265C15.5644 20.1619 15.4207 20.0282 15.2494 19.94L13.4192 23.4968ZM12.2477 22.4062C11.965 21.9418 11.816 21.4084 11.8171 20.8647L15.8171 20.8727C15.8175 20.6801 15.7647 20.491 15.6645 20.3265L12.2477 22.4062ZM11.8171 20.8687V16.2392H15.8171V20.8687H11.8171ZM13.8172 18.2392L1.38776 18.2395L1.38764 14.2395L13.8171 14.2392L13.8172 18.2392ZM1.38849 18.2395C1.00011 18.2397 0.61549 18.1633 0.256636 18.0147L1.787 14.319C1.66014 14.2665 1.52419 14.2395 1.3869 14.2395L1.38849 18.2395ZM0.256636 18.0147C-0.102215 17.8661 -0.428249 17.6482 -0.702826 17.3735L2.12616 14.5457C2.02911 14.4486 1.91386 14.3716 1.787 14.319L0.256636 18.0147ZM-0.702826 17.3735C-0.977407 17.0988 -1.19515 16.7727 -1.34361 16.4138L2.35267 14.8849C2.3002 14.7581 2.22322 14.6428 2.12616 14.5457L-0.702826 17.3735ZM-1.34361 16.4138C-1.49206 16.0549 -1.56831 15.6703 -1.568 15.2819L2.432 15.2851C2.43211 15.1478 2.40515 15.0118 2.35267 14.8849L-1.34361 16.4138ZM-1.568 15.2834L-1.56762 6.7178L2.43238 6.71797L2.432 15.2836L-1.568 15.2834ZM-1.56762 6.71868C-1.56778 6.33024 -1.49137 5.94558 -1.34275 5.58668L2.35292 7.11705C2.40544 6.99024 2.43243 6.85433 2.43238 6.71709L-1.56762 6.71868ZM-1.34275 5.58668C-1.19413 5.22779 -0.976234 4.90171 -0.701504 4.62709L2.12636 7.45608C2.22343 7.35905 2.30042 7.24384 2.35292 7.11705L-1.34275 5.58668ZM-0.701504 4.62709C-0.426775 4.35247 -0.100611 4.1347 0.258335 3.98623L1.78723 7.68251C1.91405 7.63006 2.02929 7.55311 2.12636 7.45608L-0.701504 4.62709ZM0.258335 3.98623C0.617289 3.83776 1.00198 3.7615 1.39043 3.76181L1.38725 7.76181C1.52449 7.76191 1.66041 7.73497 1.78723 7.68251L0.258335 3.98623ZM1.38884 3.76181H13.8167L13.8167 7.76181H1.38884V3.76181ZM11.8167 5.76181V1.13074H15.8167V5.76181H11.8167ZM11.8167 1.13074C11.8167 0.0174751 12.4425 -0.990278 13.4156 -1.49482L15.2568 2.05619C15.5938 1.88149 15.8167 1.52962 15.8167 1.13074H11.8167ZM13.4212 -1.49773C13.905 -1.74663 14.448 -1.85714 14.9906 -1.8171L14.6962 2.17205C14.888 2.18621 15.0801 2.14713 15.2512 2.0591L13.4212 -1.49773ZM14.9906 -1.8171C15.5331 -1.77705 16.0541 -1.58801 16.4961 -1.27079L14.1637 1.97884C14.32 2.09103 14.5043 2.15789 14.6962 2.17205L14.9906 -1.8171Z" fill="white" mask="url(#path-1-inside-1_685_2511)"/>
</svg>
