<svg width="21" height="25" viewBox="0 0 21 25" fill="none" xmlns="http://www.w3.org/2000/svg">
<path d="M17.75 0.416672C18.391 0.416672 19.0057 0.671284 19.4589 1.1245C19.9121 1.57771 20.1667 2.1924 20.1667 2.83334V22.1667C20.1667 22.8076 19.9121 23.4223 19.4589 23.8755C19.0057 24.3287 18.391 24.5833 17.75 24.5833H3.25004C2.6091 24.5833 1.99441 24.3287 1.5412 23.8755C1.08799 23.4223 0.833374 22.8076 0.833374 22.1667V2.83334C0.833374 2.1924 1.08799 1.57771 1.5412 1.1245C1.99441 0.671284 2.6091 0.416672 3.25004 0.416672H17.75ZM17.75 2.83334H11.7084V12.5L8.68754 9.78126L5.66671 12.5V2.83334H3.25004V22.1667H17.75V2.83334Z" fill="#E46F50"/>
</svg>
